<svg width="27" height="22" viewBox="0 0 27 27" fill="none" xmlns="http://www.w3.org/2000/svg">
<path d="M7.18844 0.173857C11.328 0.169253 15.1154 3.21727 16.0348 7.17693C16.5059 9.1982 17.7226 10.4183 19.7306 10.888C23.2573 11.7121 26.1298 14.9213 26.601 18.554C26.88 20.6996 26.4134 22.6472 24.968 24.2909C23.8474 25.5617 22.4157 26.2524 20.7461 26.4595C16.4602 26.9982 12.1376 23.7891 11.1176 19.4012C10.6693 17.4766 9.47549 16.2841 7.56352 15.8283C3.97284 14.9765 1.13232 11.8825 0.57885 8.21288C0.107717 5.10962 1.54399 2.19973 4.20155 0.878307C5.20328 0.381048 6.26447 0.150836 7.19301 0.164648L7.18844 0.173857ZM6.91399 9.58035C7.93402 10.6071 9.03181 11.5418 10.2714 12.2877C12.0004 13.3328 13.4184 14.7003 14.4796 16.4269C15.1337 17.4997 15.8701 18.508 16.7255 19.4242C17.3109 20.0458 17.9284 20.6306 18.5139 21.2107C19.4974 20.23 20.4351 19.2861 21.4597 18.2594C20.7004 17.4951 19.9273 16.7169 19.1131 15.8974C18.7518 16.2703 18.4773 16.5696 18.1938 16.8551C17.8644 17.1866 17.4848 17.2188 17.2103 16.9472C16.9221 16.6617 16.945 16.3026 17.2835 15.9618C17.5351 15.704 17.8004 15.46 18.0885 15.1791C17.6632 14.8983 17.2926 14.645 16.913 14.4056C16.4144 14.0925 16.2635 13.761 16.4739 13.3973C16.6934 13.0151 17.0639 12.9737 17.5762 13.3006C18.0474 13.6045 18.5094 13.9222 18.9531 14.2168C19.5111 13.6551 20.0508 13.1072 20.5997 12.5547C20.5494 12.5317 20.49 12.4902 20.4213 12.4672C20.0371 12.3429 19.6575 12.2048 19.2687 12.1035C16.8993 11.4819 15.4081 9.99013 14.8272 7.59591C14.5619 6.50931 14.1045 5.5194 13.4275 4.63078C13.1988 4.32689 12.9335 4.05064 12.7094 3.78359C12.0416 4.44661 11.4058 5.07278 10.77 5.70357C11.1039 6.0673 11.4698 6.41722 11.7763 6.81319C12.4304 7.66958 13.0707 8.53979 13.6837 9.4238C13.9627 9.81977 13.7889 10.294 13.3818 10.4229C13.0707 10.5196 12.81 10.3999 12.595 10.0868C12.1513 9.44683 11.7214 8.79302 11.2457 8.17605C10.8157 7.62354 10.3263 7.11707 9.86887 6.59679C8.86256 7.60973 7.902 8.58123 6.91857 9.57114L6.91399 9.58035ZM4.09177 12.412C4.90138 13.3512 6.39712 14.2214 7.76935 14.5529C10.2119 15.1377 11.758 16.6433 12.3618 19.1019C12.8192 20.9759 13.8209 22.4907 15.3395 23.6463C17.0456 24.9401 18.9531 25.5157 21.0937 25.1013C21.3728 25.046 21.6426 24.9494 21.9537 24.8619C21.4276 24.6086 20.9519 24.4153 20.5128 24.1574C17.59 22.4538 15.2617 20.1241 13.4778 17.2464C12.5081 15.681 11.2503 14.4194 9.69963 13.4387C8.95405 12.9691 8.24048 12.435 7.54522 11.8917C6.99633 11.4589 6.49318 10.9616 5.98088 10.5012C5.34965 11.1366 4.72299 11.7628 4.08719 12.4074L4.09177 12.412ZM5.958 8.549C6.93686 7.56829 7.87913 6.61521 8.83969 5.65292C8.38228 5.28458 7.88828 4.88861 7.41257 4.50646C7.3714 4.52488 7.36226 4.52948 7.35311 4.53408C7.05122 4.83336 6.74932 5.13724 6.44286 5.43652C6.13182 5.7404 5.74302 5.75882 5.47772 5.49637C5.20785 5.22933 5.22615 4.84717 5.53719 4.52948C5.77504 4.28546 6.02204 4.05524 6.29191 3.7928C5.54633 3.36461 4.83277 3.01929 4.0323 2.90878C3.42852 2.82591 3.19524 3.04691 3.23641 3.65928C3.29587 4.49265 3.67095 5.21552 4.0689 5.92917C4.60864 6.89146 5.27189 7.76627 5.96258 8.549H5.958ZM19.6392 22.0625C20.49 22.6933 21.4048 23.2734 22.4477 23.6095C22.7724 23.7154 23.1338 23.7292 23.4814 23.7568C23.7604 23.7799 23.916 23.6003 23.9526 23.3379C23.9708 23.1813 23.9708 23.0156 23.9434 22.859C23.7056 21.5376 22.9828 20.4602 22.2647 19.4242C21.3865 20.3083 20.5265 21.1785 19.6483 22.0625H19.6392ZM3.18152 11.376C3.82189 10.7314 4.43482 10.1144 5.06148 9.48366C3.89965 8.13461 2.83846 6.68427 2.15692 4.97149C1.36102 7.29664 1.8779 9.40078 3.18152 11.3714V11.376ZM20.0874 15.0226C20.8467 15.7869 21.6243 16.5696 22.3699 17.3155C22.9051 16.7722 23.5134 16.1598 24.1309 15.5383C23.5317 14.6312 22.7633 13.8439 21.8485 13.2315C21.2355 13.8577 20.6317 14.4701 20.092 15.0272L20.0874 15.0226ZM25.0595 21.6757C25.6038 20.055 25.4849 18.4251 24.8216 16.8367C24.2544 17.403 23.7147 17.9463 23.2207 18.4435C23.8291 19.5163 24.4466 20.5983 25.0595 21.6757ZM8.2908 3.55798C8.81682 3.98618 9.30168 4.38214 9.75452 4.75048C10.3766 4.12431 10.9895 3.50273 11.6436 2.83972C11.1222 2.56346 10.5916 2.278 10.0518 2.01095C9.98779 1.97872 9.846 2.02016 9.78196 2.08002C9.28338 2.56346 8.79395 3.05612 8.28623 3.55798H8.2908ZM8.48291 1.58276C7.68702 1.33873 5.8528 1.46765 5.28561 1.84981C5.92141 2.1675 6.56636 2.48519 7.22503 2.81209C7.25248 2.78907 7.29364 2.75684 7.33024 2.72001C7.70074 2.35167 8.07582 1.98793 8.48291 1.58276Z" fill="black"/>
</svg>
