<svg width="32" height="22" viewBox="0 0 32 22" fill="none" xmlns="http://www.w3.org/2000/svg">
<g clip-path="url(#clip0_1928_4408)">
<path d="M16.6022 21.0646C16.6022 21.0646 16.5535 21.0646 16.521 21.0646C16.0746 21.024 15.75 20.6263 15.7905 20.1799C15.823 19.8308 16.6834 11.6087 24.2643 6.59255C24.6377 6.34905 25.1409 6.44645 25.3926 6.81982C25.6361 7.19318 25.5387 7.69642 25.1653 7.94803C18.2499 12.5258 17.4139 20.261 17.4058 20.3341C17.3652 20.7561 17.008 21.0646 16.6022 21.0646Z" fill="black"/>
<path d="M16.6023 19.4413C16.2695 19.4413 15.9611 19.2384 15.8394 18.9056C13.9157 13.5243 7.39803 10.4724 7.33309 10.44C6.92726 10.2533 6.74869 9.76627 6.93538 9.36044C7.12206 8.9546 7.60094 8.77604 8.01489 8.96272C8.30709 9.10071 15.2063 12.323 17.3653 18.3537C17.5195 18.7758 17.3004 19.2384 16.8783 19.3926C16.789 19.4251 16.6997 19.4413 16.6023 19.4413Z" fill="black"/>
<path d="M13.0225 16.0315C7.38949 16.0315 2.46268 12.2573 1.10719 6.77042L0.758177 5.36623C0.65266 4.9117 0.766293 4.44093 1.07473 4.10003C1.38316 3.75102 1.84581 3.58057 2.30846 3.62927L4.39444 3.85653C9.81638 4.44093 14.2562 8.55608 15.1815 13.8644L15.2627 14.3595C15.3276 14.7572 15.2221 15.1631 14.9705 15.4715C14.727 15.7799 14.3536 15.9747 13.9559 15.9991C13.6393 16.0234 13.3309 16.0315 13.0225 16.0315ZM2.40586 5.26883L2.68183 6.38082C3.90744 11.332 8.49336 14.6679 13.6231 14.392L13.5825 14.1403C12.779 9.54632 8.93166 5.9831 4.22399 5.47175L2.41398 5.27695L2.40586 5.26883Z" fill="black"/>
<path d="M18.9967 15.4245C18.6639 15.4245 18.3312 15.3109 18.0633 15.0917C17.7468 14.832 17.552 14.4505 17.5195 14.0447C17.5195 14.0447 17.5195 14.0447 17.5195 14.0366C17.1786 7.60817 21.5778 1.9265 27.9819 0.53855L29.5403 0.19765C30.0192 0.10025 30.5143 0.230116 30.8633 0.554783C31.2123 0.87945 31.3909 1.35022 31.3259 1.82098L31.0175 4.0693C30.2464 9.83213 25.6118 14.4586 19.7597 15.3271L19.2078 15.4002C19.1428 15.4083 19.0698 15.4164 19.0048 15.4164L18.9967 15.4245ZM29.6864 1.8291L28.3228 2.12942C22.7629 3.3388 18.9237 8.22503 19.1347 13.7849L19.5324 13.7281C24.6703 12.9652 28.7367 8.90683 29.4104 3.85827L29.6864 1.8291Z" fill="black"/>
</g>
<defs>
<clipPath id="clip0_1928_4408">
<rect width="30.6161" height="20.9004" fill="white" transform="translate(0.71875 0.164062)"/>
</clipPath>
</defs>
</svg>
